<svg id="Layer_1" data-name="Layer 1" xmlns="http://www.w3.org/2000/svg" viewBox="0 0 157.98 148.04"><defs><style>.cls-1{fill:#231f20;}.cls-1,.cls-2{stroke:#231f20;stroke-miterlimit:10;}.cls-2{fill:#3d68ef;}.cls-3{fill:#fff;}</style></defs><rect class="cls-1" x="0.5" y="0.5" width="156.98" height="147.04"/><polygon class="cls-2" points="59.88 11.7 13.71 11.7 13.71 63.55 59.88 11.7"/><polygon class="cls-2" points="13.71 79.37 13.71 124.41 61.4 124.41 20.3 71.95 13.71 79.37"/><polygon class="cls-2" points="31.5 62.04 49.07 84.25 38.09 54.92 31.5 62.04"/><polygon class="cls-2" points="90.08 55.91 141.78 55.91 141.78 69.23 90.08 69.23 90.08 111.09 145.57 111.09 145.57 25.02 90.08 25.02 90.08 55.91"/><polygon class="cls-2" points="64.92 104.28 75.1 117.14 75.1 77.7 65.08 104.28 64.92 104.28"/><polygon class="cls-2" points="45.74 48.03 61.15 91.44 75.1 51.76 75.1 14.97 44.48 48.03 45.74 48.03"/><path class="cls-3" d="M47.85,155.19H46.09l-3.71-4.74-.6.67v4.07H40.43V145h1.35v4.68L46,145H47.6l-4.21,4.55Z" transform="translate(-14.37 -14.77)"/><path class="cls-3" d="M52.6,148.94h-.06a1.55,1.55,0,0,0-.31-.06h-.38a2.61,2.61,0,0,0-1,.23,3.32,3.32,0,0,0-1,.67v5.42H48.56v-7.64h1.28v1.14a5.65,5.65,0,0,1,1.23-.88,2.34,2.34,0,0,1,1-.26l.29,0,.22,0Z" transform="translate(-14.37 -14.77)"/><path class="cls-3" d="M55,146.28H53.54v-1.34H55Zm-.08,8.91H53.63v-7.64h1.29Z" transform="translate(-14.37 -14.77)"/><path class="cls-3" d="M58.87,155.38a4.82,4.82,0,0,1-1.44-.21,6.27,6.27,0,0,1-1.1-.44v-1.44h.07l.38.29a5,5,0,0,0,.6.33,4.68,4.68,0,0,0,.72.26,2.74,2.74,0,0,0,.81.12,3.9,3.9,0,0,0,.66-.07,1.71,1.71,0,0,0,.52-.18,1.09,1.09,0,0,0,.34-.34,1,1,0,0,0,.11-.53.87.87,0,0,0-.25-.69,1.91,1.91,0,0,0-.88-.39l-.65-.15c-.26-.05-.5-.11-.73-.17a2.34,2.34,0,0,1-1.27-.79,2.1,2.1,0,0,1-.4-1.28,2.08,2.08,0,0,1,.78-1.68,3.16,3.16,0,0,1,2.08-.65,5.08,5.08,0,0,1,1.27.16,4.22,4.22,0,0,1,1.08.39v1.38h-.06a4.11,4.11,0,0,0-1.1-.62,3.46,3.46,0,0,0-1.22-.22,2.13,2.13,0,0,0-1.08.26.89.89,0,0,0-.43.81.91.91,0,0,0,.26.72,2.08,2.08,0,0,0,.83.38l.64.15c.23.05.48.1.74.17a2.4,2.4,0,0,1,1.28.7,2,2,0,0,1,.42,1.34,2.24,2.24,0,0,1-.19.93,2,2,0,0,1-.57.76,2.93,2.93,0,0,1-.93.52A3.93,3.93,0,0,1,58.87,155.38Z" transform="translate(-14.37 -14.77)"/><path class="cls-3" d="M65.36,155.34a2.19,2.19,0,0,1-1.64-.6,2.63,2.63,0,0,1-.59-1.89v-4.23h-.87v-1.07h.87v-2.19h1.29v2.19h2.36v1.07H64.42v3.63c0,.39,0,.69,0,.9a1.29,1.29,0,0,0,.16.58.72.72,0,0,0,.37.36,1.71,1.71,0,0,0,.71.12,2,2,0,0,0,.6-.09l.43-.15h.07v1.15a5.93,5.93,0,0,1-.73.16A4.39,4.39,0,0,1,65.36,155.34Z" transform="translate(-14.37 -14.77)"/><path class="cls-3" d="M69.13,146.28H67.67v-1.34h1.46ZM69,155.19H67.76v-7.64H69Z" transform="translate(-14.37 -14.77)"/><path class="cls-3" d="M75.2,154.38a4.74,4.74,0,0,0-.42.32,3.11,3.11,0,0,1-.51.33,4.48,4.48,0,0,1-.66.28,3.42,3.42,0,0,1-.89.09,2.26,2.26,0,0,1-.9-.18,2.32,2.32,0,0,1-.75-.49,2.53,2.53,0,0,1-.49-.78,2.65,2.65,0,0,1-.18-1,2.6,2.6,0,0,1,.33-1.35,2.3,2.3,0,0,1,1.06-.89,5.35,5.35,0,0,1,1.52-.41c.58-.07,1.21-.13,1.89-.16v-.25a1.69,1.69,0,0,0-.14-.73,1.13,1.13,0,0,0-.38-.43,1.58,1.58,0,0,0-.6-.2,4.45,4.45,0,0,0-.74-.05,4.82,4.82,0,0,0-1,.13,7.93,7.93,0,0,0-1.2.38H71v-1.3c.24-.07.58-.14,1-.23a7.34,7.34,0,0,1,1.31-.12,6.23,6.23,0,0,1,1.33.12,2.61,2.61,0,0,1,1,.45,1.92,1.92,0,0,1,.62.81,3.14,3.14,0,0,1,.21,1.22v5.22H75.2Zm0-1.07v-2.12L74,151.3a5.88,5.88,0,0,0-1.13.21,1.91,1.91,0,0,0-.85.48,1.21,1.21,0,0,0-.34.9,1.32,1.32,0,0,0,.37,1,1.59,1.59,0,0,0,1.08.33,2.32,2.32,0,0,0,1.1-.26A4.87,4.87,0,0,0,75.2,153.31Z" transform="translate(-14.37 -14.77)"/><path class="cls-3" d="M84.28,155.19H83v-4.35c0-.35,0-.67,0-1a2.2,2.2,0,0,0-.2-.73.94.94,0,0,0-.44-.42,1.61,1.61,0,0,0-.76-.14,2.2,2.2,0,0,0-1,.25,5.08,5.08,0,0,0-1,.67v5.7H78.28v-7.64h1.29v.85a5,5,0,0,1,1.13-.78,2.56,2.56,0,0,1,1.18-.28,2.2,2.2,0,0,1,1.77.75,3.21,3.21,0,0,1,.63,2.14Z" transform="translate(-14.37 -14.77)"/><path class="cls-3" d="M90.35,154.38l-.42.32a2.45,2.45,0,0,1-.51.33,3.73,3.73,0,0,1-.66.28,3.42,3.42,0,0,1-.89.09,2.25,2.25,0,0,1-.89-.18,2.12,2.12,0,0,1-.75-.49,2.36,2.36,0,0,1-.49-.78,2.66,2.66,0,0,1-.19-1,2.6,2.6,0,0,1,.34-1.35,2.25,2.25,0,0,1,1.06-.89,5.26,5.26,0,0,1,1.52-.41c.58-.07,1.21-.13,1.88-.16v-.25a1.7,1.7,0,0,0-.13-.73,1.08,1.08,0,0,0-.39-.43,1.47,1.47,0,0,0-.6-.2,4.4,4.4,0,0,0-.73-.05,4.9,4.9,0,0,0-1,.13,7.93,7.93,0,0,0-1.2.38h-.07v-1.3c.23-.07.57-.14,1-.23a7.45,7.45,0,0,1,1.32-.12,6.19,6.19,0,0,1,1.32.12,2.54,2.54,0,0,1,1,.45,1.94,1.94,0,0,1,.63.81,3.35,3.35,0,0,1,.2,1.22v5.22H90.35Zm0-1.07v-2.12l-1.16.11a6.2,6.2,0,0,0-1.13.21,1.93,1.93,0,0,0-.84.48,1.17,1.17,0,0,0-.34.9,1.28,1.28,0,0,0,.37,1,1.59,1.59,0,0,0,1.08.33,2.38,2.38,0,0,0,1.1-.26A4.51,4.51,0,0,0,90.35,153.31Z" transform="translate(-14.37 -14.77)"/><path class="cls-3" d="M105.29,145l-3.5,10.18h-1.46L96.83,145h1.44l2.82,8.45,2.82-8.45Z" transform="translate(-14.37 -14.77)"/><path class="cls-3" d="M110.64,155.19V145H117v1.21h-5V149h4.67v1.21H112V154h5v1.2Z" transform="translate(-14.37 -14.77)"/><path class="cls-3" d="M124.4,155.19h-1.29v-4.35c0-.35,0-.67,0-1a2.2,2.2,0,0,0-.2-.73,1,1,0,0,0-.43-.42,1.68,1.68,0,0,0-.77-.14,2.2,2.2,0,0,0-1,.25,5.08,5.08,0,0,0-1,.67v5.7h-1.29v-7.64h1.29v.85a5,5,0,0,1,1.13-.78,2.6,2.6,0,0,1,1.19-.28,2.18,2.18,0,0,1,1.76.75,3.22,3.22,0,0,1,.64,2.14Z" transform="translate(-14.37 -14.77)"/><path class="cls-3" d="M126.47,156.41l.39.15.57.18.66.14a3.36,3.36,0,0,0,.65.05,3,3,0,0,0,1-.15,1.56,1.56,0,0,0,.65-.44,1.78,1.78,0,0,0,.31-.65,3.63,3.63,0,0,0,.08-.84v-.67a4.11,4.11,0,0,1-1,.67,3.28,3.28,0,0,1-1.26.21,2.49,2.49,0,0,1-2.07-1,4.37,4.37,0,0,1-.78-2.79,4.85,4.85,0,0,1,.27-1.68,3.91,3.91,0,0,1,.72-1.25,3,3,0,0,1,1-.76,2.88,2.88,0,0,1,1.21-.27,3.47,3.47,0,0,1,1,.14,4.81,4.81,0,0,1,.87.4l.08-.33h1.21v6.77a4,4,0,0,1-.85,2.85,3.36,3.36,0,0,1-2.59.91,7.49,7.49,0,0,1-1.14-.09,8,8,0,0,1-1.09-.24v-1.34Zm4.32-3.29v-4.19a3.7,3.7,0,0,0-.88-.33,3.21,3.21,0,0,0-.81-.1,1.84,1.84,0,0,0-1.54.72,3.27,3.27,0,0,0-.56,2.05,3.55,3.55,0,0,0,.43,1.94,1.51,1.51,0,0,0,1.38.66,3,3,0,0,0,1-.2A3.11,3.11,0,0,0,130.79,153.12Z" transform="translate(-14.37 -14.77)"/><path class="cls-3" d="M137.25,155.37a3.77,3.77,0,0,1-2.83-1,4,4,0,0,1-1-2.92,4.31,4.31,0,0,1,1-3,3.24,3.24,0,0,1,2.56-1.11,3.45,3.45,0,0,1,1.25.21,2.39,2.39,0,0,1,1,.64,3.06,3.06,0,0,1,.63,1.07,4.67,4.67,0,0,1,.22,1.55v.7h-5.29a2.83,2.83,0,0,0,.67,2,2.42,2.42,0,0,0,1.85.71,3.31,3.31,0,0,0,.83-.1,3.78,3.78,0,0,0,.74-.24,5.93,5.93,0,0,0,.58-.31,3,3,0,0,0,.4-.28h.08v1.41l-.56.22a6.41,6.41,0,0,1-.61.21c-.25.06-.47.12-.68.15A4.07,4.07,0,0,1,137.25,155.37Zm1.51-4.85a3.76,3.76,0,0,0-.12-.89,1.92,1.92,0,0,0-.32-.64,1.42,1.42,0,0,0-.58-.44,2.19,2.19,0,0,0-.87-.15,2.08,2.08,0,0,0-.87.16,2,2,0,0,0-.65.44,2.22,2.22,0,0,0-.44.67,3,3,0,0,0-.19.85Z" transform="translate(-14.37 -14.77)"/><path class="cls-3" d="M142.62,155.19h-1.28V144.55h1.28Z" transform="translate(-14.37 -14.77)"/></svg>